<svg xmlns="http://www.w3.org/2000/svg" viewBox="0 0 1024 1024"><path d="M481.5 233.107c-30.211 2.81-63.943 11.91-93.228 25.149-19.577 8.851-48.731 27.329-53.643 34-3.98 5.406-1.901 13.839 3.882 15.748 4.303 1.42 5.962.674 19.527-8.787 61.188-42.672 132.645-56.748 205.962-40.572 35.87 7.913 75.194 26.41 100.879 47.449 11.472 9.397 13.847 10.355 19.409 7.821 5.571-2.539 7.462-11.332 3.457-16.071-2.825-3.343-18.162-14.568-31.245-22.868-50.258-31.885-115.225-47.428-175-41.869m-228.3 58.616c-24.386 7.183-26.309 43.697-2.861 54.344 5.155 2.341 16.206 2.568 21.305.437 4.253-1.777 5.955-.678 17.856 11.521C302.948 371.811 311.723 379 315.102 379c8.167 0 13.169-7.922 9.746-15.434-.634-1.391-8.079-8.883-16.544-16.65-18.662-17.122-18.468-16.854-17.121-23.54 4.032-20.015-17.258-37.759-37.983-31.653m492.603-.383c-13.669 3.853-21.616 15.822-20.545 30.947l.48 6.787-14.105 13.213c-21.044 19.712-21.449 20.133-22.177 23.03-1.578 6.289 2.709 12.493 9.239 13.369 4.624.62 4.389.809 30.918-24.875l9.114-8.823 3.604 1.506c8.767 3.663 22.421 1.117 30.057-5.605 23.188-20.411 3.07-57.907-26.585-49.549M497.5 328.662c-32.56 1.905-69.189 14.915-96.675 34.338-29.115 20.575-59.86 59.993-69.417 89-3.285 9.973-3.126 7.309.757-12.714 4.262-21.972 6.888-30.794 13.781-46.292 4.11-9.241 6.429-13.625 13.555-25.623.937-1.579-3.179 2.127-9.148 8.236-59.56 60.954-77.408 160.542-43.222 241.165 16.478 38.863 53.256 81.521 87.673 101.692 7.377 4.324 7.196 4.323 7.196.047 0-8.474 6.754-19.518 14.845-24.274 6.877-4.043 21.412-4.056 28.268-.025 15.637 9.192 19.669 28.381 9.273 44.13-3.082 4.668-3.811 4.046 7.614 6.49 30.188 6.455 81.402 5.188 101.73-2.516l2.23-.845-2.996-4.486c-10.411-15.589-5.874-34.877 10.079-42.849 18.426-9.207 39.215 1.864 42.54 22.656.37 2.315.915 4.208 1.212 4.208 1.48 0 24.472-16.124 32.049-22.476 93.273-78.194 105.613-219.921 27.303-313.588-7.468-8.933-20.835-21.537-16.894-15.93 10.713 15.242 21.374 44.029 27.188 73.412 2.91 14.709 2.852 15.885-.388 7.82-16.101-40.087-55.501-81.813-96.977-102.699-26.475-13.333-61.815-20.618-91.576-18.877m-11.51 19.223c-9.792 5.347-10.162 18.381-.686 24.159 2.793 1.703 5.092 1.949 18.222 1.952 40.194.01 60.951 8.229 86.68 34.323 12.913 13.096 15.452 14.465 22.415 12.087 6.789-2.318 10.632-9.277 8.911-16.136-.914-3.639-21.749-24.732-32.258-32.656-14.224-10.726-29.021-17.513-49.659-22.779-12.192-3.111-48.49-3.754-53.625-.95M232 395.752c-11.053 5.521-7.408 23.105 4.659 22.476 2.663-.139 15.624-.496 28.802-.793 15.421-.348 24.442-.939 25.309-1.659.741-.615 3.412-3.833 5.935-7.151l4.588-6.033-3.83-3.31-3.83-3.311-24.067.155c-16.063.104-25.002-.223-26.881-.985-3.903-1.582-6.605-1.428-10.685.611m505.672 41.291c-4.226 3.325-4.282 7.22-.286 20.053C744.26 479.173 748 500.924 748 518.82c0 10.184 3.456 15.18 10.5 15.18 2.875 0 4.459-.759 7.1-3.4l3.4-3.4-.008-9.85c-.025-29.995-10.678-74.814-19.201-80.784-3.153-2.209-8.997-1.978-12.119.477M404.5 448.409c-31.062 7.697-41.791 48.508-18.784 71.451 20.465 20.409 54.237 14.933 67.14-10.887 16.502-33.025-12.566-69.432-48.356-60.564m188.751.136c-31.086 8.371-41.563 47.269-19.123 70.997 16.723 17.682 47.94 16.696 61.845-1.954 25.631-34.374-2.52-79.868-42.722-69.043m-186.3 10.817c-33.602 9.062-27.681 60.545 7.014 60.995 22.051.286 37.351-19.835 30.582-40.216-1.994-6.003-3.214-7.208-3.214-3.176 0 8.125-10.498 13.586-18.331 9.536-10.069-5.207-11.102-20.206-1.735-25.186l3.233-1.719-3-.68c-4.634-1.05-9.564-.899-14.549.446m191.549-.372c-16.109 3.458-24.952 14.441-24.968 31.01-.031 32.551 43.608 42.484 58.507 13.317 3.158-6.182 3.398-18.521.481-24.817l-1.852-4-.716 3.291c-2.713 12.472-19.495 13.645-25.658 1.793-3.306-6.356.084-17.11 5.751-18.243 3.195-.639 4.063-2.334 1.205-2.352-.962-.006-3.325-.201-5.25-.434-1.925-.233-5.3-.037-7.5.435m195.423 9.933L791 471.846v40.452c0 22.249-.27 41.803-.6 43.453l-.6 3.001-20.054.733c-19.224.702-20.151.829-22.4 3.078-3.483 3.483-3.332 11.178.29 14.801l2.637 2.636h27.229c25.558 0 27.382-.121 29.728-1.966 4.791-3.769 4.844-4.421 4.548-56.891l-.278-49.308-3.266-2.918c-4.561-4.074-10.233-4.072-14.311.006m-300.486 47.043c-19.786 4.218-36.537 19.179-42.026 37.534-2.198 7.349-3.01 8.5-5.996 8.5-17.196 0-33.675 22.693-30.654 42.212 5.641 36.442 52.439 58.417 112.186 52.678 48.021-4.612 78.377-28.267 76.855-59.89-.872-18.122-15.649-35-30.643-35-2.537 0-2.948-.566-4.978-6.869-5.543-17.212-18.36-30.342-36.061-36.942-7.258-2.706-30.229-4.026-38.683-2.223m4.547 21.891c-4.575 2.439-6.629 7.936-5.009 13.41 1.215 4.103 6.467 10.733 8.504 10.733 2.662 0 3.464 13.806 1.127 19.401-3.881 9.288-12.807 8.578-19.185-1.526-3.876-6.14-10.421-5.14-10.421 1.593 0 7.702 11.077 16.505 20.79 16.523 5.715.01 12.391-2.707 14.088-5.734.906-1.617 1.21-1.547 3.803.871 8.509 7.932 22.493 6.328 30.948-3.55 5.485-6.408 4.084-13.578-2.654-13.578-2.447 0-3.177.668-4.841 4.429-3.446 7.791-10.616 9.72-16.599 4.467L515 581.793v-19.595l3.491-2.06c9.268-5.469 9.858-18.372 1.031-22.561-4.803-2.279-17.034-2.12-21.538.28M776.5 615.981c-4.844 1.253-8.288 2.882-6.25 2.956 4.061.147.388 2.874-4.75 3.527-.55.07-.888.669-.75 1.331.303 1.46-1.443 1.627-1.924.184-.454-1.363-5.808 1.121-5.818 2.7-.004.648-.727 1.897-1.605 2.775-.879.879-1.327 2.302-.996 3.164.396 1.032-.08 1.745-1.392 2.088-1.096.287-1.746.919-1.446 1.406.779 1.26-2.07 5.026-3.126 4.132-.482-.409-.274.044.462 1.006.811 1.059.921 1.75.279 1.75-1.748 0-2.703 9.058-1.064 10.095 1.149.728 1.153.877.019.89-.817.009-.417.801 1 1.982 2.233 1.86 2.253 1.973.361 2.079-1.1.061-1.451.334-.779.607 2.033.823-.846 3.122-3.191 2.548-1.871-.458-1.838-.288.422 2.18 1.349 1.473 2.981 2.475 3.628 2.227.647-.249 1.747.076 2.445.72.994.919 1.087.848.43-.328-.73-1.306-.614-1.317.899-.09.977.793 1.475 2.093 1.139 2.97-.329.857-.279 1.239.112.848.391-.391 1.401-.152 2.245.531 1.073.868 1.321.886.826.06-.39-.649-.221-1.482.375-1.851.608-.375 1.325.253 1.633 1.431.302 1.156.973 2.101 1.492 2.101.518 0 .657-.562.309-1.25-.348-.687.012-.462.801.5 2.99 3.647 16.756.415 24.195-5.681 8.14-6.67 12.959-20.476 10.57-30.284-1.202-4.933-5.987-12.956-7.282-12.208-.402.233-1.426-.571-2.277-1.785-.991-1.415-2.135-1.983-3.183-1.58-1.095.42-1.398.241-.914-.542.48-.777-.137-1.17-1.836-1.17-1.407 0-2.559-.477-2.559-1.059s.45-.781 1-.441 1 .141 1-.441c0-1.179-.231-1.183-4.5-.078m-37.893 18.601c-2.354 6.134.635 22.599 4.539 25.006.86.53.707-.155-.419-1.877-.975-1.491-1.425-2.718-1-2.726.425-.009.136-.419-.643-.912-1.06-.671-1.438-3.441-1.5-10.984-.091-10.915-.082-10.839-.977-8.507m9.883 27.434c-.346.559-1.16.698-1.809.308-.727-.436-.673-.081.142.925.761.939 2.014 1.367 2.95 1.008 1.052-.404 1.201-.766.42-1.026-.663-.221-.951-.813-.64-1.316.311-.503.34-.915.065-.915s-.783.457-1.128 1.016M313.5 685.149c-1.1.599-9.524 8.554-18.72 17.678l-16.719 16.59-4.781-1.713c-28.185-10.103-51.437 21.242-33.691 45.417 16.294 22.198 51.994 8.559 51.646-19.731l-.1-8.109 17.285-16.576c9.506-9.117 17.852-17.948 18.546-19.624 3.637-8.78-5.521-18.255-13.466-13.932m377.423 1.774c-3.341 3.341-3.897 8.292-1.462 13.002.804 1.554 9.199 10.245 18.656 19.312l17.194 16.487.094 9.388c.144 14.205 6.926 23.893 19.232 27.471 29.773 8.655 50.768-27.215 28.797-49.2-7.25-7.254-22.22-9.698-31.314-5.111l-3.38 1.704-6.215-6.238C705.035 686.145 702.551 684 698.08 684c-3.346 0-4.847.613-7.157 2.923M345.291 745.75c-9.987 9.763-18.644 19.031-19.237 20.597-2.736 7.223 3.502 15.341 10.931 14.226 2.873-.432 6.054-3.114 18.138-15.298 8.06-8.126 16.021-15.942 17.691-17.369 5.916-5.054 5.022-14.209-1.779-18.226-5.596-3.306-6.502-2.74-25.744 16.07M666.5 762.796c-1.65.942-7.275 4.542-12.5 8-76.038 50.321-181.408 57.122-264.635 17.08-11.658-5.609-15.809-6.118-20.059-2.463-2.312 1.989-2.806 3.217-2.806 6.978 0 7.581 2.366 9.128 33.106 21.643 50.917 20.73 110.761 25.291 170.183 12.971 13.164-2.73 31.867-8.242 43.978-12.962 22.38-8.722 62.13-30.904 66.021-36.842 5.697-8.695-4.302-19.534-13.288-14.405" fill-rule="evenodd"/></svg>